HIERARCHY
ROOT Hips
{
 OFFSET 0.000000 0.000000 0.000000
 CHANNELS 6 Xposition Yposition Zposition Yrotation Xrotation Zrotation
 JOINT Chest
 {
  OFFSET 0.000000 9.585900 0.002600
  CHANNELS 3 Yrotation Xrotation Zrotation
  JOINT Chest2
  {
   OFFSET 0.000000 9.601200 -0.005300
   CHANNELS 3 Yrotation Xrotation Zrotation
   JOINT Chest3
   {
    OFFSET 0.000000 9.561800 0.000000
    CHANNELS 3 Yrotation Xrotation Zrotation
    JOINT Chest4
    {
     OFFSET 0.000000 9.552100 0.000000
     CHANNELS 3 Yrotation Xrotation Zrotation
     JOINT Neck
     {
      OFFSET 0.000000 14.453000 0.000000
      CHANNELS 3 Yrotation Xrotation Zrotation
      JOINT Head
      {
       OFFSET 0.000000 8.936500 -0.011300
       CHANNELS 3 Yrotation Xrotation Zrotation
       End Site
       {
        OFFSET 0.000000 17.073600 -0.006000
       }
      }
     }
     JOINT RightCollar
     {
      OFFSET -2.921100 9.558500 0.000000
      CHANNELS 3 Yrotation Xrotation Zrotation
      JOINT RightShoulder
      {
       OFFSET -13.519700 0.000000 0.000000
       CHANNELS 3 Yrotation Xrotation Zrotation
       JOINT RightElbow
       {
        OFFSET 0.000000 -29.696600 0.000000
        CHANNELS 3 Yrotation Xrotation Zrotation
        JOINT RightWrist
        {
         OFFSET 0.000000 -24.004700 0.000000
         CHANNELS 3 Yrotation Xrotation Zrotation
         End Site
         {
          OFFSET 0.000000 -17.728500 0.000000
         }
        }
       }
      }
     }
     JOINT LeftCollar
     {
      OFFSET 2.921100 9.558500 0.000000
      CHANNELS 3 Yrotation Xrotation Zrotation
      JOINT LeftShoulder
      {
       OFFSET 13.519700 0.000000 0.000000
       CHANNELS 3 Yrotation Xrotation Zrotation
       JOINT LeftElbow
       {
        OFFSET 0.000000 -29.696600 0.000000
        CHANNELS 3 Yrotation Xrotation Zrotation
        JOINT LeftWrist
        {
         OFFSET 0.000000 -24.004700 0.000000
         CHANNELS 3 Yrotation Xrotation Zrotation
         End Site
         {
          OFFSET 0.000000 -17.728500 0.000000
         }
        }
       }
      }
     }
    }
   }
  }
 }
 JOINT RightHip
 {
  OFFSET -7.771700 -0.012900 -0.001300
  CHANNELS 3 Yrotation Xrotation Zrotation
  JOINT RightKnee
  {
   OFFSET 0.000000 -40.869800 0.001200
   CHANNELS 3 Yrotation Xrotation Zrotation
   JOINT RightAnkle
   {
    OFFSET 0.000000 -39.717900 0.002100
    CHANNELS 3 Yrotation Xrotation Zrotation
    JOINT RightToe
    {
     OFFSET 0.000000 -4.965400 11.033500
     CHANNELS 3 Yrotation Xrotation Zrotation
     End Site
     {
      OFFSET 0.000000 -1.423100 5.872300
     }
    }
   }
  }
 }
 JOINT LeftHip
 {
  OFFSET 7.771700 -0.012900 -0.001300
  CHANNELS 3 Yrotation Xrotation Zrotation
  JOINT LeftKnee
  {
   OFFSET 0.000000 -40.869800 0.001200
   CHANNELS 3 Yrotation Xrotation Zrotation
   JOINT LeftAnkle
   {
    OFFSET 0.000000 -39.717900 0.002100
    CHANNELS 3 Yrotation Xrotation Zrotation
    JOINT LeftToe
    {
     OFFSET 0.000000 -4.965400 11.033500
     CHANNELS 3 Yrotation Xrotation Zrotation
     End Site
     {
      OFFSET 0.000000 -1.423100 5.872300
     }
    }
   }
  }
 }
}
MOTION
Frames: 9
Frame Time: 0.008333
-2.847039 52.426212 33.769368 172.128952 -37.141251 -1.556383 3.582815 20.266741 1.600143 0.412163 2.636013 0.327334 0.682136 4.289546 0.535240 3.102047 17.382915 2.561248 0.839843 13.716846 -1.389421 2.156751 -10.261068 -3.016427 -5.303845 -1.619439 -3.145707 -5.783975 1.235736 4.780192 -156.082715 -81.082831 169.767405 2.524457 8.558008 4.450454 -2.457993 -0.058304 0.480630 8.744618 -0.828564 1.123547 101.365365 -69.449199 -122.293897 -6.129530 12.638046 -8.769211 -4.098621 -44.374359 1.584878 -132.257164 85.779853 -128.031335 -0.757283 -10.047010 -3.861749 0.512307 -0.969819 0.226398 0.256336 -40.366439 4.698212 69.387573 82.931014 58.981453 -6.220942 -12.389720 9.558738 0.714034 1.518553 0.299305
-2.845995 52.417947 33.770584 172.124825 -37.133870 -1.557932 3.586338 20.271213 1.609930 0.414084 2.646595 0.331944 0.684151 4.303368 0.541919 3.103638 17.392579 2.573318 0.829211 13.693393 -1.378958 2.113414 -10.324670 -2.944538 -5.331394 -1.663321 -3.183699 -5.793898 1.283544 4.792505 -154.927535 -81.020066 168.712379 2.524019 8.273579 4.094217 -2.483385 -0.104525 0.508582 8.692184 -0.819330 1.317520 101.662432 -69.326428 -122.755342 -5.640935 11.803008 -7.873730 -4.098048 -44.380880 1.583989 -132.361253 85.788080 -128.126155 -0.759261 -10.058620 -3.873762 0.514207 -0.961911 0.230725 0.262514 -40.375384 4.702384 69.369173 82.932960 58.964431 -6.216554 -12.401178 9.565550 0.724806 1.532637 0.301818
-2.844952 52.409582 33.772027 172.121103 -37.120436 -1.558888 3.597394 20.312061 1.639479 0.408103 2.599842 0.310747 0.685815 4.313991 0.546875 3.109547 17.418959 2.594400 0.820076 13.670402 -1.368238 2.086052 -10.373916 -2.905020 -5.351226 -1.712445 -3.222961 -5.859991 1.449621 4.755471 -154.391498 -80.846590 168.307210 2.407960 7.790857 3.516188 -2.519324 -0.161315 0.525671 8.580564 -0.809912 1.540716 102.142135 -69.242812 -123.317610 -5.088620 10.732180 -6.617890 -4.098251 -44.393753 1.581709 -132.496421 85.796554 -128.249290 -0.768600 -10.072114 -3.887068 0.523137 -0.953216 0.234017 0.262773 -40.390508 4.704860 69.374512 82.932572 58.968372 -6.204517 -12.417804 9.572447 0.710456 1.548844 0.300088
-2.844064 52.402945 33.771338 172.111990 -37.118797 -1.553736 3.607851 20.335731 1.654098 0.410008 2.605648 0.310604 0.683162 4.301010 0.541599 3.112448 17.444546 2.614744 0.813247 13.648218 -1.357622 2.069731 -10.415753 -2.882988 -5.367254 -1.763628 -3.261745 -5.883359 1.555088 4.714006 -153.987509 -80.738827 168.053207 2.285201 7.060501 2.586336 -2.551088 -0.218022 0.526671 8.405394 -0.805684 1.778848 102.981534 -69.250568 -124.129935 -4.557463 9.475018 -5.155302 -4.091828 -44.394493 1.576980 -132.572244 85.799553 -128.320261 -0.763485 -10.083327 -3.892744 0.521807 -0.947069 0.234090 0.253747 -40.390180 4.710879 69.358262 82.937392 58.940635 -6.183166 -12.435237 9.580369 0.680270 1.561965 0.299845
-2.842839 52.397389 33.769561 172.103114 -37.122316 -1.550172 3.617826 20.362447 1.670439 0.412355 2.638212 0.327843 0.681628 4.304846 0.542258 3.103403 17.429326 2.605188 0.805736 13.616406 -1.364696 2.053659 -10.444248 -2.841838 -5.369781 -1.812736 -3.318182 -5.874315 1.625613 4.691914 -154.752830 -80.692216 168.935201 2.083780 6.075498 1.339199 -2.564208 -0.266188 0.511168 8.165630 -0.810097 2.019311 104.258575 -69.384555 -125.303510 -4.109248 8.070840 -3.572195 -4.090511 -44.389900 1.574945 -132.615299 85.797008 -128.360160 -0.750867 -10.090230 -3.898894 0.517814 -0.947036 0.233049 0.245674 -40.387199 4.719436 69.244942 82.970248 58.822668 -6.153145 -12.441584 9.589638 0.679452 1.564953 0.293942
-2.842687 52.391188 33.768690 172.100308 -37.115245 -1.545373 3.620595 20.372130 1.677361 0.410792 2.646920 0.331916 0.680515 4.287900 0.531969 3.106676 17.462516 2.624749 0.798874 13.585982 -1.370054 2.035906 -10.468815 -2.799939 -5.367913 -1.855555 -3.349145 -5.833180 1.677407 4.638446 -156.647433 -80.658572 170.902801 1.883814 4.842394 -0.188273 -2.614969 -0.324933 0.516035 7.937918 -0.793014 2.223424 106.052803 -69.652306 -126.925965 -3.766570 6.538751 -1.930562 -4.094739 -44.397902 1.568716 -132.579687 85.783225 -128.320866 -0.734849 -10.097455 -3.911214 0.523852 -0.946180 0.235877 0.234036 -40.393789 4.722221 69.246622 82.972175 58.813331 -6.147384 -12.449846 9.597580 0.670308 1.571552 0.290825
-2.842478 52.385001 33.768030 172.091499 -37.105066 -1.538507 3.627522 20.367255 1.678735 0.407839 2.659345 0.338554 0.686323 4.302280 0.538252 3.096743 17.471125 2.628848 0.798727 13.570006 -1.359334 2.022304 -10.500570 -2.789060 -5.364082 -1.896372 -3.371896 -5.751795 1.719769 4.569289 -159.589002 -80.604782 173.891509 1.741440 3.385975 -1.958562 -2.716279 -0.387679 0.535838 7.766111 -0.760865 2.393258 108.435208 -70.033182 -129.063870 -3.524570 4.888460 -0.261562 -4.097018 -44.408477 1.568444 -132.600472 85.779899 -128.340718 -0.734986 -10.104253 -3.921810 0.527607 -0.944420 0.239488 0.233342 -40.404618 4.724165 69.188232 82.988601 58.750840 -6.137284 -12.453202 9.606172 0.671913 1.574278 0.288696
-2.838894 52.380797 33.765353 172.066734 -37.112957 -1.541734 3.647834 20.392664 1.707908 0.412527 2.646116 0.329972 0.682900 4.325155 0.550052 3.091947 17.473372 2.627499 0.798921 13.561249 -1.341500 2.010403 -10.530059 -2.766724 -5.346703 -1.920566 -3.398686 -5.643810 1.753916 4.506462 -163.400531 -80.488875 177.710005 1.694010 1.785461 -3.857887 -2.769212 -0.428537 0.536501 7.571501 -0.741546 2.565157 111.427322 -70.484717 -131.756307 -3.376927 3.149594 1.441345 -4.101089 -44.399352 1.593992 -132.597195 85.777218 -128.336267 -0.726479 -10.100892 -3.926957 0.520455 -0.950549 0.237114 0.228558 -40.398763 4.749817 69.132496 83.019689 58.700966 -6.111843 -12.461023 9.601538 0.677993 1.573608 0.289409
-2.833049 52.377057 33.762349 172.011515 -37.125944 -1.541375 3.682960 20.441952 1.751983 0.422162 2.630938 0.323854 0.682609 4.331716 0.551879 3.096048 17.454349 2.617053 0.790210 13.591455 -1.285282 2.009018 -10.579506 -2.761122 -5.309368 -1.908783 -3.418348 -5.531659 1.774475 4.453079 -167.802721 -80.281847 -177.924637 1.739437 0.125877 -5.765106 -2.837677 -0.449311 0.548737 7.422167 -0.725470 2.714990 115.018232 -70.960589 -134.995293 -3.319632 1.365792 3.170987 -4.090280 -44.386214 1.639086 -132.617847 85.773773 -128.356518 -0.695073 -10.105510 -3.920200 0.483273 -0.946892 0.221648 0.222539 -40.386995 4.798185 69.166129 83.021228 58.728363 -6.062791 -12.442283 9.608968 0.638725 1.545324 0.269771
